<svg width="79" height="79" viewBox="0 0 79 79" fill="none" xmlns="http://www.w3.org/2000/svg">
<path fill-rule="evenodd" clip-rule="evenodd" d="M19.4415 7.40625C21.6571 7.40625 23.4532 9.20236 23.4532 11.418V15.4297H27.465C29.6806 15.4297 31.4767 17.2258 31.4767 19.4414C31.4767 21.657 29.6806 23.4531 27.465 23.4531H23.4532V27.4648C23.4532 29.6805 21.6571 31.4766 19.4415 31.4766C17.2259 31.4766 15.4298 29.6805 15.4298 27.4648V23.4531H11.4181C9.20248 23.4531 7.40637 21.657 7.40637 19.4414C7.40637 17.2258 9.20248 15.4297 11.4181 15.4297H15.4298V11.418C15.4298 9.20236 17.2259 7.40625 19.4415 7.40625ZM19.4415 47.5234C21.6571 47.5234 23.4532 49.3195 23.4532 51.5352V55.5469H27.465C29.6806 55.5469 31.4767 57.343 31.4767 59.5586C31.4767 61.7742 29.6806 63.5703 27.465 63.5703H23.4532V67.582C23.4532 69.7976 21.6571 71.5938 19.4415 71.5938C17.2259 71.5938 15.4298 69.7976 15.4298 67.582V63.5703H11.4181C9.20248 63.5703 7.40637 61.7742 7.40637 59.5586C7.40637 57.343 9.20248 55.5469 11.4181 55.5469H15.4298V51.5352C15.4298 49.3195 17.2259 47.5234 19.4415 47.5234Z" fill="#137703"/>
<path fill-rule="evenodd" clip-rule="evenodd" d="M47.5233 7.40625C49.3436 7.40625 50.9357 8.63176 51.4015 10.3914L56.1322 28.2629L69.5867 36.0251C70.8285 36.7416 71.5937 38.0663 71.5937 39.5C71.5937 40.9337 70.8285 42.2584 69.5867 42.9749L56.1322 50.7371L51.4015 68.6086C50.9357 70.3682 49.3436 71.5938 47.5233 71.5938C45.7031 71.5938 44.111 70.3682 43.6452 68.6086L38.9145 50.7371L25.4602 42.9749C24.2184 42.2584 23.4532 40.9337 23.4532 39.5C23.4532 38.0663 24.2184 36.7416 25.4602 36.0251L38.9145 28.2629L43.6452 10.3914C44.111 8.63176 45.7031 7.40625 47.5233 7.40625Z" fill="#137703"/>
<path fill-rule="evenodd" clip-rule="evenodd" d="M19.4415 7.40625C21.6571 7.40625 23.4532 9.20236 23.4532 11.418V15.4297H27.465C29.6806 15.4297 31.4767 17.2258 31.4767 19.4414C31.4767 21.657 29.6806 23.4531 27.465 23.4531H23.4532V27.4648C23.4532 29.6805 21.6571 31.4766 19.4415 31.4766C17.2259 31.4766 15.4298 29.6805 15.4298 27.4648V23.4531H11.4181C9.20248 23.4531 7.40637 21.657 7.40637 19.4414C7.40637 17.2258 9.20248 15.4297 11.4181 15.4297H15.4298V11.418C15.4298 9.20236 17.2259 7.40625 19.4415 7.40625ZM19.4415 47.5234C21.6571 47.5234 23.4532 49.3195 23.4532 51.5352V55.5469H27.465C29.6806 55.5469 31.4767 57.343 31.4767 59.5586C31.4767 61.7742 29.6806 63.5703 27.465 63.5703H23.4532V67.582C23.4532 69.7976 21.6571 71.5938 19.4415 71.5938C17.2259 71.5938 15.4298 69.7976 15.4298 67.582V63.5703H11.4181C9.20248 63.5703 7.40637 61.7742 7.40637 59.5586C7.40637 57.343 9.20248 55.5469 11.4181 55.5469H15.4298V51.5352C15.4298 49.3195 17.2259 47.5234 19.4415 47.5234Z" stroke="#137703" stroke-width="2" stroke-linecap="round" stroke-linejoin="round"/>
<path fill-rule="evenodd" clip-rule="evenodd" d="M47.5233 7.40625C49.3436 7.40625 50.9357 8.63176 51.4015 10.3914L56.1322 28.2629L69.5867 36.0251C70.8285 36.7416 71.5937 38.0663 71.5937 39.5C71.5937 40.9337 70.8285 42.2584 69.5867 42.9749L56.1322 50.7371L51.4015 68.6086C50.9357 70.3682 49.3436 71.5938 47.5233 71.5938C45.7031 71.5938 44.111 70.3682 43.6452 68.6086L38.9145 50.7371L25.4602 42.9749C24.2184 42.2584 23.4532 40.9337 23.4532 39.5C23.4532 38.0663 24.2184 36.7416 25.4602 36.0251L38.9145 28.2629L43.6452 10.3914C44.111 8.63176 45.7031 7.40625 47.5233 7.40625Z" stroke="#137703" stroke-width="2" stroke-linecap="round" stroke-linejoin="round"/>
</svg>
