<svg width="79" height="79" viewBox="0 0 79 79" fill="none" xmlns="http://www.w3.org/2000/svg">
<path fill-rule="evenodd" clip-rule="evenodd" d="M15.4297 7.40631C10.9985 7.40631 7.40625 10.9985 7.40625 15.4297V59.5586C7.40625 66.2054 12.7946 71.5937 19.4414 71.5937C26.0882 71.5937 31.4765 66.2054 31.4765 59.5586V15.4297C31.4765 10.9985 27.8843 7.40631 23.4531 7.40631H15.4297ZM19.4414 63.5703C21.657 63.5703 23.4531 61.7742 23.4531 59.5586C23.4531 57.343 21.657 55.5469 19.4414 55.5469C17.2258 55.5469 15.4297 57.343 15.4297 59.5586C15.4297 61.7742 17.2258 63.5703 19.4414 63.5703Z" fill="#137703"/>
<path d="M39.4999 56.5199L59.1553 36.8646C62.2886 33.7313 62.2886 28.6511 59.1553 25.5178L53.4818 19.8444C50.3485 16.711 45.2683 16.711 42.135 19.8444L39.4999 22.4794V56.5199Z" fill="#137703"/>
<path d="M63.5703 71.5937H35.7732L59.8435 47.5234H63.5703C68.0015 47.5234 71.5938 51.1156 71.5938 55.5469V63.5703C71.5938 68.0015 68.0015 71.5937 63.5703 71.5937Z" fill="#137703"/>
</svg>
