<svg width="79" height="79" viewBox="0 0 79 79" fill="none" xmlns="http://www.w3.org/2000/svg">
<path d="M35.4883 35.4883C35.4883 31.0571 39.0805 27.4648 43.5117 27.4648C47.9429 27.4648 51.5352 31.0571 51.5352 35.4883C51.5352 39.9195 47.9429 43.5117 43.5117 43.5117C41.295 43.5117 39.2946 42.6181 37.8383 41.1617C36.3819 39.7054 35.4883 37.705 35.4883 35.4883Z" fill="#137703"/>
<path fill-rule="evenodd" clip-rule="evenodd" d="M39.5 71.5938C57.2249 71.5938 71.5938 57.2249 71.5938 39.5C71.5938 21.7751 57.2249 7.40625 39.5 7.40625C21.7751 7.40625 7.40625 21.7751 7.40625 39.5C7.40625 57.2249 21.7751 71.5938 39.5 71.5938ZM43.5117 19.4414C34.6493 19.4414 27.4648 26.6258 27.4648 35.4883C27.4648 38.4625 28.2764 41.2506 29.6872 43.6394L20.6164 52.7102C19.0497 54.2768 19.0497 56.8169 20.6164 58.3836C22.1831 59.9503 24.7232 59.9503 26.2898 58.3836L35.3606 49.3128C37.7494 50.7236 40.5375 51.5352 43.5117 51.5352C52.3742 51.5352 59.5586 44.3507 59.5586 35.4883C59.5586 26.6258 52.3742 19.4414 43.5117 19.4414Z" fill="#137703"/>
<path d="M35.4883 35.4883C35.4883 31.0571 39.0805 27.4648 43.5117 27.4648C47.9429 27.4648 51.5352 31.0571 51.5352 35.4883C51.5352 39.9195 47.9429 43.5117 43.5117 43.5117C41.295 43.5117 39.2946 42.6181 37.8383 41.1617C36.3819 39.7054 35.4883 37.705 35.4883 35.4883Z" stroke="#137703" stroke-width="2"/>
<path fill-rule="evenodd" clip-rule="evenodd" d="M39.5 71.5938C57.2249 71.5938 71.5938 57.2249 71.5938 39.5C71.5938 21.7751 57.2249 7.40625 39.5 7.40625C21.7751 7.40625 7.40625 21.7751 7.40625 39.5C7.40625 57.2249 21.7751 71.5938 39.5 71.5938ZM43.5117 19.4414C34.6493 19.4414 27.4648 26.6258 27.4648 35.4883C27.4648 38.4625 28.2764 41.2506 29.6872 43.6394L20.6164 52.7102C19.0497 54.2768 19.0497 56.8169 20.6164 58.3836C22.1831 59.9503 24.7232 59.9503 26.2898 58.3836L35.3606 49.3128C37.7494 50.7236 40.5375 51.5352 43.5117 51.5352C52.3742 51.5352 59.5586 44.3507 59.5586 35.4883C59.5586 26.6258 52.3742 19.4414 43.5117 19.4414Z" stroke="#137703" stroke-width="2"/>
</svg>
