<svg width="79" height="79" viewBox="0 0 79 79" fill="none" xmlns="http://www.w3.org/2000/svg">
<path fill-rule="evenodd" clip-rule="evenodd" d="M44.138 7.57148C45.6224 8.0394 46.6319 9.41602 46.6319 10.9725V28.8022L60.8957 28.8022C62.2253 28.8022 63.4445 29.5419 64.0586 30.7213C64.6726 31.9007 64.5795 33.3238 63.817 34.413L38.8554 70.0725C37.9628 71.3476 36.3464 71.8964 34.862 71.4285C33.3776 70.9606 32.3681 69.584 32.3681 68.0275L32.3681 50.1978H18.1043C16.7747 50.1978 15.5555 49.4581 14.9414 48.2787C14.3274 47.0993 14.4205 45.6762 15.183 44.587L40.1446 8.92752C41.0372 7.65244 42.6536 7.10355 44.138 7.57148Z" fill="#137703" stroke="#137703" stroke-width="2" stroke-linecap="round" stroke-linejoin="round"/>
</svg>
